<svg width="42" height="36" viewBox="0 0 42 36" fill="none" xmlns="http://www.w3.org/2000/svg">
<path d="M0 12C0 5.37258 5.37258 0 12 0H30C36.6274 0 42 5.37258 42 12V24C42 30.6274 36.6274 36 30 36H12C5.37258 36 0 30.6274 0 24V12Z" fill="#1C2D4A"/>
<path d="M21 19C21.5523 19 22 18.5523 22 18C22 17.4477 21.5523 17 21 17C20.4477 17 20 17.4477 20 18C20 18.5523 20.4477 19 21 19Z" stroke="#7E96B8" stroke-width="2" stroke-linecap="round" stroke-linejoin="round"/>
<path d="M28 19C28.5523 19 29 18.5523 29 18C29 17.4477 28.5523 17 28 17C27.4477 17 27 17.4477 27 18C27 18.5523 27.4477 19 28 19Z" stroke="#7E96B8" stroke-width="2" stroke-linecap="round" stroke-linejoin="round"/>
<path d="M14 19C14.5523 19 15 18.5523 15 18C15 17.4477 14.5523 17 14 17C13.4477 17 13 17.4477 13 18C13 18.5523 13.4477 19 14 19Z" stroke="#7E96B8" stroke-width="2" stroke-linecap="round" stroke-linejoin="round"/>
</svg>
