<svg xmlns="http://www.w3.org/2000/svg" viewBox="0 0 361.47 361.47"><defs><style>.cls-1{fill:#ed560a;}.cls-2{fill:#fff;}</style></defs><g id="图层_2" data-name="图层 2"><g id="图层_1-2" data-name="图层 1"><rect class="cls-1" width="361.47" height="361.47"/><path class="cls-2" d="M123.3,124.09H64.92a3.8,3.8,0,0,0-3.81,3.81V260.28a3.8,3.8,0,0,0,3.81,3.81h9.69v-110a19.5,19.5,0,0,1,39,0v110h9.69a3.81,3.81,0,0,0,3.81-3.81V127.9A3.81,3.81,0,0,0,123.3,124.09Z"/><path class="cls-2" d="M232.12,86.59h-74a4.83,4.83,0,0,0-4.83,4.83V259.26a4.83,4.83,0,0,0,4.83,4.83h12.28V124.63a24.73,24.73,0,1,1,49.45,0V264.09h12.29a4.83,4.83,0,0,0,4.83-4.83V91.42A4.83,4.83,0,0,0,232.12,86.59Z"/><path class="cls-2" d="M312.3,142.46H261.58a3.31,3.31,0,0,0-3.31,3.31v115a3.31,3.31,0,0,0,3.31,3.31H270V168.52a16.94,16.94,0,1,1,33.88,0v95.57h8.42a3.31,3.31,0,0,0,3.31-3.31v-115A3.31,3.31,0,0,0,312.3,142.46Z"/><path class="cls-2" d="M52.44,206l-1.57-9.76c-.21-1.27.3-2.51,1.12-2.75,7-2.07,38.49-10.35,96.8-12.81,58-2.46,87.8,3.17,94.69,4.7.84.19,1.44,1.4,1.32,2.68l-.86,9.83c-.1,1.24-.83,2.08-1.64,1.9-6.68-1.43-36.5-6.91-92.9-4.53-56.8,2.4-88.31,10.58-95.17,12.54C53.43,208,52.64,207.18,52.44,206Z"/></g></g></svg>