<svg width="88" height="88" viewBox="0 0 88 88" fill="none" xmlns="http://www.w3.org/2000/svg">
<path d="M37.7301 14.1533L6.67341 66C6.03309 67.1089 5.69429 68.3661 5.6907 69.6466C5.68712 70.9271 6.01888 72.1861 6.65297 73.2986C7.28707 74.411 8.2014 75.3381 9.30501 75.9875C10.4086 76.6368 11.663 76.9859 12.9434 77H75.0567C76.3371 76.9859 77.5916 76.6368 78.6952 75.9875C79.7988 75.3381 80.7131 74.411 81.3472 73.2986C81.9813 72.1861 82.313 70.9271 82.3095 69.6466C82.3059 68.3661 81.9671 67.1089 81.3268 66L50.2701 14.1533C49.6164 13.0757 48.6961 12.1848 47.5978 11.5664C46.4995 10.9481 45.2604 10.6233 44.0001 10.6233C42.7397 10.6233 41.5006 10.9481 40.4024 11.5664C39.3041 12.1848 38.3837 13.0757 37.7301 14.1533V14.1533Z" stroke="#FD766B" stroke-width="2" stroke-linecap="round" stroke-linejoin="round"/>
<path d="M44 33V47.6667" stroke="#FD766B" stroke-width="2" stroke-linecap="round" stroke-linejoin="round"/>
<path d="M44 62.3333H44.0349" stroke="#FD766B" stroke-width="2" stroke-linecap="round" stroke-linejoin="round"/>
</svg>
