<svg width="22" height="22" viewBox="0 0 22 22" fill="none" xmlns="http://www.w3.org/2000/svg">
<g clip-path="url(#clip0_1_452)">
<path d="M7.667 11.245L9.889 13.508L14.333 8.983M20.576 4.439C18.8314 4.53116 17.0859 4.27449 15.4416 3.68399C13.7974 3.0935 12.2874 2.18104 11 1C9.71269 2.18122 8.20275 3.09386 6.55849 3.68453C4.91424 4.27519 3.16871 4.53203 1.424 4.44C1.14149 5.55463 0.99906 6.70013 1 7.85C1 14.177 5.249 19.493 11 21C16.751 19.493 21 14.178 21 7.851C21 6.673 20.852 5.53 20.576 4.439V4.439Z" stroke="#7E96B8" stroke-width="1.5" stroke-linecap="round" stroke-linejoin="round"/>
</g>
<defs>
<clipPath id="clip0_1_452">
<rect width="22" height="22" fill="white"/>
</clipPath>
</defs>
</svg>
