<svg width="22" height="16" viewBox="0 0 22 16" fill="none" xmlns="http://www.w3.org/2000/svg">
<g clip-path="url(#clip0_1_454)">
<path d="M3.92908 15C3.00174 14.0827 2.26494 12.9911 1.76108 11.788C1.25903 10.5882 1.00049 9.30059 1.00049 8C1.00049 6.69941 1.25903 5.41179 1.76108 4.212C2.26523 3.0088 3.00238 1.91718 3.93008 1M18.0701 1C18.9974 1.91733 19.7342 3.00892 20.2381 4.212C20.7401 5.4118 20.9986 6.69941 20.9986 8C20.9986 9.30059 20.7401 10.5882 20.2381 11.788C19.7342 12.9911 18.9974 14.0827 18.0701 15M7.07008 11.888C6.5557 11.3795 6.14724 10.7741 5.86831 10.1067C5.58939 9.43934 5.44554 8.7233 5.44508 8C5.44508 6.542 6.03008 5.143 7.07108 4.112M14.9291 4.112C15.4436 4.62042 15.8523 5.22583 16.1314 5.89319C16.4105 6.56055 16.5545 7.27663 16.5551 8C16.5545 8.72337 16.4105 9.43945 16.1314 10.1068C15.8523 10.7742 15.4436 11.3796 14.9291 11.888M12.1101 8C12.1101 8.292 11.9931 8.571 11.7851 8.778C11.5759 8.98514 11.2935 9.10134 10.9991 9.10134C10.7047 9.10134 10.4222 8.98514 10.2131 8.778C10.1103 8.67619 10.0287 8.55501 9.97299 8.42147C9.9173 8.28793 9.88863 8.14468 9.88863 8C9.88863 7.85532 9.9173 7.71207 9.97299 7.57853C10.0287 7.44499 10.1103 7.32381 10.2131 7.222C10.4222 7.01486 10.7047 6.89866 10.9991 6.89866C11.2935 6.89866 11.5759 7.01486 11.7851 7.222C11.9931 7.428 12.1101 7.708 12.1101 8Z" stroke="#7E96B8" stroke-width="1.5" stroke-linecap="round" stroke-linejoin="round"/>
</g>
<defs>
<clipPath id="clip0_1_454">
<rect width="22" height="16" fill="white"/>
</clipPath>
</defs>
</svg>
