<svg width="18" height="18" viewBox="0 0 18 18" fill="none" xmlns="http://www.w3.org/2000/svg">
<path d="M13.7046 16.7728H4.29548C3.48208 16.7717 2.7023 16.4481 2.12714 15.8729C1.55198 15.2977 1.22838 14.518 1.22729 13.7046V4.29548C1.22838 3.48208 1.55198 2.7023 2.12714 2.12714C2.7023 1.55198 3.48208 1.22838 4.29548 1.22729H9.00002C9.16277 1.22729 9.31885 1.29195 9.43393 1.40702C9.54901 1.5221 9.61366 1.67818 9.61366 1.84093C9.61366 2.00368 9.54901 2.15976 9.43393 2.27484C9.31885 2.38992 9.16277 2.45457 9.00002 2.45457H4.29548C3.80757 2.45565 3.33995 2.64995 2.99495 2.99495C2.64995 3.33995 2.45565 3.80757 2.45457 4.29548V13.7046C2.45565 14.1925 2.64995 14.6601 2.99495 15.0051C3.33995 15.3501 3.80757 15.5444 4.29548 15.5455H13.7046C14.1925 15.5444 14.6601 15.3501 15.0051 15.0051C15.3501 14.6601 15.5444 14.1925 15.5455 13.7046V9.00002C15.5455 8.83728 15.6101 8.6812 15.7252 8.56612C15.8403 8.45104 15.9964 8.38639 16.1591 8.38639C16.3219 8.38639 16.4779 8.45104 16.593 8.56612C16.7081 8.6812 16.7728 8.83728 16.7728 9.00002V13.7046C16.7717 14.518 16.4481 15.2977 15.8729 15.8729C15.2977 16.4481 14.518 16.7717 13.7046 16.7728Z" fill="#2F8AF5"/>
<path d="M8.79547 9.81797C8.63287 9.81738 8.47706 9.75271 8.36183 9.63797C8.30444 9.58128 8.25888 9.51375 8.22778 9.43932C8.19668 9.36488 8.18066 9.28501 8.18066 9.20434C8.18066 9.12366 8.19668 9.04379 8.22778 8.96936C8.25888 8.89492 8.30444 8.82739 8.36183 8.7707L15.7255 1.40706C15.8418 1.29867 15.9957 1.23966 16.1546 1.24247C16.3136 1.24527 16.4653 1.30967 16.5777 1.4221C16.6901 1.53453 16.7545 1.68621 16.7573 1.84518C16.7601 2.00416 16.7011 2.15801 16.5927 2.27434L9.22911 9.63797C9.11389 9.75271 8.95807 9.81738 8.79547 9.81797Z" fill="#2F8AF5"/>
<path d="M16.1591 2.45457H12.8863C12.7236 2.45457 12.5675 2.38992 12.4524 2.27484C12.3374 2.15976 12.2727 2.00368 12.2727 1.84093C12.2727 1.67818 12.3374 1.5221 12.4524 1.40702C12.5675 1.29195 12.7236 1.22729 12.8863 1.22729H16.1591C16.3218 1.22729 16.4779 1.29195 16.593 1.40702C16.7081 1.5221 16.7727 1.67818 16.7727 1.84093C16.7727 2.00368 16.7081 2.15976 16.593 2.27484C16.4779 2.38992 16.3218 2.45457 16.1591 2.45457Z" fill="#2F8AF5"/>
<path d="M16.159 5.72729C15.9963 5.72729 15.8402 5.66264 15.7251 5.54756C15.6101 5.43249 15.5454 5.2764 15.5454 5.11366V1.84093C15.5454 1.67818 15.6101 1.5221 15.7251 1.40702C15.8402 1.29195 15.9963 1.22729 16.159 1.22729C16.3218 1.22729 16.4779 1.29195 16.5929 1.40702C16.708 1.5221 16.7727 1.67818 16.7727 1.84093V5.11366C16.7727 5.2764 16.708 5.43249 16.5929 5.54756C16.4779 5.66264 16.3218 5.72729 16.159 5.72729Z" fill="#2F8AF5"/>
</svg>
